PathFileType	4	(x/y/z)	S06_P20_T63
DataRate	CameraRate	NumFrames	NumMarkers	Units	OrigDataRate	OrigDataStartFrame	OrigNumFrames
240	240	8	51	mm	240	1	355
Frame#	Time	Sternum			R.Acromium			L.Acromium			Top.Head			R.ASIS			L.ASIS			R.PSIS			L.PSIS			R.Great.Tro			L.Great.Tro			R.Iliac.Crest			L.Iliac.Crest			V.Sacral			R.Thigh.Upper.Post			R.Thigh.Lower.Ant			R.Thigh.Lower.Post			R.Thigh.Upper.Ant			R.Knee.Lat			R.Knee.Med			R.Shank.Upper.Post			R.Shank.Lower.Ant			R.Shank.Lower.Post			R.Shank.Upper.Ant			R.Ankle.Lat			R.Ankle.Med			R.Heel.Upper			R.Heel.Med			R.Heel.Lat			R.Toe.Lat			R.Toe.Med			R.Toe.Tip			L.Thigh.Upper.Post			L.Thigh.Lower.Ant			L.Thigh.Lower.Post			L.Thigh.Upper.Ant			L.Knee.Lat			L.Knee.Med			L.Shank.Upper.Post			L.Shank.Lower.Ant			L.Shank.Lower.Post			L.Shank.Upper.Ant			L.Ankle.Lat			L.Ankle.Med			L.Heel.Upper			L.Heel.Med			L.Heel.Lat			L.Toe.Lat			L.Toe.Med			L.Toe.Tip			Cervical.Spine			Back			
		X1	Y1	Z1	X2	Y2	Z2	X3	Y3	Z3	X4	Y4	Z4	X5	Y5	Z5	X6	Y6	Z6	X7	Y7	Z7	X8	Y8	Z8	X9	Y9	Z9	X10	Y10	Z10	X11	Y11	Z11	X12	Y12	Z12	X13	Y13	Z13	X14	Y14	Z14	X15	Y15	Z15	X16	Y16	Z16	X17	Y17	Z17	X18	Y18	Z18	X19	Y19	Z19	X20	Y20	Z20	X21	Y21	Z21	X22	Y22	Z22	X23	Y23	Z23	X24	Y24	Z24	X25	Y25	Z25	X26	Y26	Z26	X27	Y27	Z27	X28	Y28	Z28	X29	Y29	Z29	X30	Y30	Z30	X31	Y31	Z31	X32	Y32	Z32	X33	Y33	Z33	X34	Y34	Z34	X35	Y35	Z35	X36	Y36	Z36	X37	Y37	Z37	X38	Y38	Z38	X39	Y39	Z39	X40	Y40	Z40	X41	Y41	Z41	X42	Y42	Z42	X43	Y43	Z43	X44	Y44	Z44	X45	Y45	Z45	X46	Y46	Z46	X47	Y47	Z47	X48	Y48	Z48	X49	Y49	Z49	X50	Y50	Z50	X51	Y51	Z51	

1	0	NaN	NaN	NaN	-1442.6	1495.9	494.79	-1473.9	1488.6	143.21	-1453.7	1807.6	310.29	NaN	NaN	NaN	NaN	NaN	NaN	-1590.9	1073.7	356.52	-1595.3	1076.4	277.06	-1470.1	979.86	505.39	-1477	978.71	144.76	-1481.5	1127.3	484.88	-1463.2	1121.7	167.2	-1609.5	1042.1	321.18	-1517.5	735.5	485.52	NaN	NaN	NaN	NaN	NaN	NaN	-1439.7	728.67	467.98	-1553.8	536.86	449.68	-1539.5	543.39	320.34	-1666.9	332.92	439.63	-1617.2	255.27	415.54	-1687.9	261.1	423.62	NaN	NaN	NaN	-1713.9	127.84	396.46	-1694.5	130.49	303.65	-1783.4	91.937	345.61	-1773.7	59.129	316.31	-1778.7	60.968	380.18	-1603.9	42.701	429.51	-1572	47.717	308.31	-1506	54.858	356.24	-1326.6	742.63	167.6	-1263	682.78	235.64	-1315.2	653.49	185.56	-1282.4	774.65	215.26	-1302.1	562.74	203.22	-1286.2	572.79	324.57	-1299.5	333.24	211.51	-1222.6	287.35	210.08	-1288.1	262	227.26	-1236.8	356.64	199.66	-1208.3	128.19	224.07	-1199.9	139.05	314.93	NaN	NaN	NaN	-1248	39.739	305.45	-1260.3	46.569	242.5	-1086.9	105.18	199.82	NaN	NaN	NaN	-1006.8	162.09	261.57	-1520.3	1548	323.22	-1584	1278.7	331.95
2	0.0041667	NaN	NaN	NaN	-1437.8	1495.2	494.5	-1469.5	1488.1	142.92	-1449.3	1807.1	310.11	NaN	NaN	NaN	NaN	NaN	NaN	-1586.3	1073.1	356.27	-1590.5	1075.7	276.77	-1466.2	979.73	505.22	-1472.5	978.09	144.64	-1476.6	1126.8	484.58	-1458.1	1120.9	166.75	-1604.7	1041.4	320.89	-1512.4	735.04	485.43	NaN	NaN	NaN	NaN	NaN	NaN	-1432.6	729.29	466.18	-1549.1	536.43	449.8	-1534.8	542.81	320.53	-1664	333.57	439.78	-1615.4	255.56	415.69	-1685.7	261.94	423.75	NaN	NaN	NaN	-1713.5	128.84	396.47	-1693.2	131.17	304.29	-1782.8	93.498	345.71	-1773.3	60.785	316.29	-1778.3	62.445	380.19	-1603.8	42.555	429.52	-1571.8	47.759	308.37	-1505.9	54.579	356.34	-1322.1	741.71	167.74	-1258.5	681.78	235.54	-1311.1	652.55	185.83	-1277.7	773.69	215.1	-1298.1	561.72	203.39	-1282.1	571.94	324.57	-1296.8	332.17	211.76	-1220.1	285.86	210.71	-1285.8	260.88	227.57	-1233.9	355.21	200.23	-1206.7	126.93	224.73	-1198.7	137.66	315.69	NaN	NaN	NaN	-1247.5	39.423	305.6	-1258.8	46.126	242.71	-1084.8	102.85	201.28	NaN	NaN	NaN	-1005.2	159.28	263.54	-1515.7	1547.5	322.96	-1579.3	1278	331.64
3	0.0083333	NaN	NaN	NaN	-1432.9	1494.5	494.19	-1465	1487.6	142.62	-1444.7	1806.6	309.92	NaN	NaN	NaN	NaN	NaN	NaN	-1581.5	1072.5	355.99	-1585.4	1075	276.46	-1462.2	979.65	505.06	-1467.7	977.44	144.52	-1471.5	1126.2	484.27	-1452.8	1120.1	166.28	-1599.6	1040.7	320.58	-1507.2	734.56	485.35	NaN	NaN	NaN	NaN	NaN	NaN	-1425.5	729.86	464.5	-1544.2	535.99	449.95	-1529.8	542.21	320.75	-1660.8	334.25	439.97	-1613.6	255.83	415.82	-1683.4	262.84	423.92	NaN	NaN	NaN	-1713	129.91	396.53	-1691.9	131.94	304.97	-1782.1	95.2	345.84	-1772.9	62.59	316.28	-1778	64.057	380.22	-1603.7	42.397	429.54	-1571.6	47.807	308.44	-1505.7	54.293	356.45	-1317.5	740.74	167.87	-1253.8	680.72	235.44	-1306.8	651.58	186.1	-1272.7	772.68	214.91	-1294	560.67	203.55	-1277.9	571.06	324.58	-1293.9	331.06	212.01	-1217.5	284.33	211.36	-1283.4	259.72	227.89	-1230.8	353.73	200.81	-1205.1	125.63	225.4	-1197.3	136.23	316.46	NaN	NaN	NaN	-1246.9	39.126	305.75	-1257.1	45.653	242.93	-1082.7	100.44	202.75	NaN	NaN	NaN	-1003.5	156.34	265.54	-1510.9	1546.9	322.7	-1574.3	1277.4	331.3
4	0.0125	NaN	NaN	NaN	-1427.8	1493.8	493.86	-1460.2	1487.2	142.3	-1440	1806.1	309.72	NaN	NaN	NaN	NaN	NaN	NaN	-1576.5	1071.9	355.68	-1580.2	1074.2	276.13	-1458.2	979.63	504.9	-1462.7	976.76	144.38	-1466.3	1125.6	483.94	-1447.4	1119.3	165.79	-1594.4	1040	320.25	-1501.7	734.08	485.27	NaN	NaN	NaN	NaN	NaN	NaN	-1418.3	730.38	462.96	-1538.9	535.53	450.13	-1524.5	541.59	321	-1657.5	334.98	440.2	-1611.8	256.11	415.95	-1680.9	263.82	424.13	NaN	NaN	NaN	-1712.4	131.05	396.63	-1690.5	132.82	305.69	-1781.3	97.054	345.99	-1772.4	64.554	316.29	-1777.6	65.813	380.26	-1603.6	42.228	429.56	-1571.4	47.865	308.51	-1505.6	54	356.56	-1312.8	739.73	167.99	-1249.1	679.61	235.33	-1302.5	650.56	186.36	-1267.7	771.61	214.7	-1289.8	559.58	203.71	-1273.6	570.14	324.59	-1290.9	329.93	212.27	-1214.8	282.77	212.03	-1281	258.54	228.21	-1227.7	352.22	201.41	-1203.4	124.32	226.06	-1196	134.77	317.24	NaN	NaN	NaN	-1246.4	38.857	305.89	-1255.4	45.156	243.16	-1080.5	97.947	204.22	NaN	NaN	NaN	-1001.7	153.27	267.52	-1505.9	1546.4	322.41	-1569.2	1276.7	330.95
5	0.016667	NaN	NaN	NaN	-1422.6	1493.1	493.52	-1455.4	1486.7	141.96	-1435.2	1805.6	309.52	NaN	NaN	NaN	NaN	NaN	NaN	-1571.4	1071.3	355.35	-1574.8	1073.5	275.77	-1454.3	979.67	504.74	-1457.5	976.07	144.23	-1460.9	1125.1	483.59	-1441.8	1118.5	165.28	-1589	1039.4	319.89	-1496	733.59	485.19	NaN	NaN	NaN	NaN	NaN	NaN	-1411.1	730.83	461.63	-1533.4	535.06	450.34	-1519	540.94	321.27	-1653.9	335.74	440.48	-1610.2	256.36	416.07	-1678.3	264.87	424.38	NaN	NaN	NaN	-1711.6	132.28	396.79	-1689.1	133.81	306.45	-1780.5	99.069	346.18	-1771.9	66.69	316.32	-1777.2	67.725	380.32	-1603.5	42.051	429.57	-1571.2	47.935	308.58	-1505.4	53.705	356.67	-1308	738.69	168.11	-1244.2	678.46	235.21	-1298.1	649.52	186.63	-1262.4	770.48	214.45	-1285.5	558.46	203.88	-1269.2	569.19	324.6	-1287.8	328.8	212.52	-1212	281.2	212.7	-1278.5	257.34	228.53	-1224.5	350.7	202.01	-1201.7	123	226.71	-1194.5	133.29	318.01	-1265.2	63.352	273.59	-1245.8	38.623	306.03	-1253.6	44.645	243.4	-1078.3	95.404	205.67	NaN	NaN	NaN	-999.96	150.09	269.46	-1500.8	1545.8	322.11	-1564	1276.1	330.58
6	0.020833	NaN	NaN	NaN	-1417.3	1492.4	493.17	-1450.4	1486.3	141.6	-1430.2	1805.1	309.31	NaN	NaN	NaN	NaN	NaN	NaN	-1566.1	1070.7	354.99	-1569.3	1072.8	275.39	-1450.3	979.78	504.58	-1452.1	975.36	144.07	-1455.4	1124.6	483.23	-1436	1117.7	164.76	-1583.4	1038.7	319.5	-1490.2	733.11	485.13	NaN	NaN	NaN	NaN	NaN	NaN	-1404	731.2	460.54	-1527.7	534.58	450.59	-1513.3	540.27	321.58	-1650.1	336.55	440.82	-1608.7	256.61	416.17	-1675.4	266.01	424.66	NaN	NaN	NaN	-1710.8	133.58	397.01	-1687.6	134.94	307.24	-1779.5	101.26	346.4	-1771.3	69.01	316.37	-1776.7	69.805	380.41	-1603.4	41.868	429.59	-1571	48.017	308.65	-1505.3	53.41	356.8	-1303.2	737.61	168.21	-1239.3	677.28	235.07	-1293.7	648.44	186.89	-1257.1	769.32	214.16	-1281.2	557.33	204.03	-1264.7	568.22	324.62	-1284.7	327.67	212.77	-1209.1	279.63	213.36	-1275.9	256.14	228.84	-1221.3	349.18	202.62	-1199.9	121.69	227.34	-1193.1	131.8	318.77	-1263.5	63.328	273.68	-1245.3	38.432	306.16	-1251.7	44.128	243.64	-1076.2	92.825	207.08	NaN	NaN	NaN	-998.14	146.82	271.34	-1495.6	1545.3	321.8	-1558.6	1275.5	330.18
7	0.025	NaN	NaN	NaN	-1411.9	1491.7	492.81	-1445.4	1485.9	141.23	-1425.1	1804.7	309.1	NaN	NaN	NaN	NaN	NaN	NaN	-1560.6	1070.2	354.59	-1563.7	1072.2	274.98	-1446.4	979.95	504.43	-1446.6	974.65	143.9	-1449.8	1124.1	482.84	-1430.3	1116.9	164.23	-1577.8	1038.1	319.1	-1484.2	732.63	485.08	NaN	NaN	NaN	NaN	NaN	NaN	-1397.1	731.47	459.72	-1521.7	534.1	450.89	-1507.4	539.59	321.93	-1646	337.4	441.22	-1607.3	256.82	416.26	-1672.3	267.23	425	NaN	NaN	NaN	-1709.8	134.98	397.3	-1686	136.2	308.06	-1778.5	103.64	346.67	-1770.6	71.529	316.46	-1776.1	72.067	380.52	-1603.3	41.683	429.61	-1570.8	48.116	308.73	-1505.1	53.116	356.92	-1298.3	736.51	168.29	-1234.3	676.05	234.92	-1289.3	647.35	187.13	-1251.7	768.11	213.83	-1276.9	556.18	204.18	-1260.3	567.24	324.64	-1281.5	326.55	213.01	-1206.3	278.08	214.02	-1273.2	254.95	229.14	-1217.9	347.67	203.22	-1198.1	120.4	227.95	-1191.5	130.32	319.52	-1261.7	63.336	273.77	-1244.7	38.287	306.28	-1249.8	43.62	243.89	-1074	90.227	208.42	NaN	NaN	NaN	-996.3	143.47	273.13	-1490.4	1544.8	321.47	-1553.1	1274.8	329.77
8	0.029167	NaN	NaN	NaN	-1406.5	1491	492.44	-1440.3	1485.5	140.85	-1420	1804.3	308.88	NaN	NaN	NaN	NaN	NaN	NaN	-1555.1	1069.6	354.17	-1558	1071.5	274.54	-1442.5	980.18	504.26	-1440.9	973.94	143.71	-1444.1	1123.6	482.43	-1424.4	1116.2	163.69	-1572.1	1037.5	318.66	-1478	732.15	485.04	NaN	NaN	NaN	NaN	NaN	NaN	-1390.3	731.64	459.19	-1515.4	533.61	451.23	-1501.2	538.9	322.32	-1641.7	338.3	441.68	-1606.2	257.01	416.33	-1669.1	268.54	425.37	NaN	NaN	NaN	-1708.6	136.48	397.66	-1684.4	137.6	308.92	-1777.3	106.22	346.98	-1769.8	74.263	316.57	-1775.5	74.527	380.65	-1603.1	41.502	429.62	-1570.5	48.233	308.81	-1505	52.825	357.05	-1293.4	735.4	168.35	-1229.3	674.81	234.76	-1284.9	646.25	187.36	-1246.3	766.87	213.48	-1272.6	555.04	204.32	-1255.9	566.25	324.67	-1278.3	325.45	213.24	-1203.3	276.55	214.67	-1270.5	253.78	229.42	-1214.6	346.19	203.82	-1196.3	119.14	228.53	-1189.9	128.86	320.24	-1260	63.381	273.86	-1244.1	38.195	306.4	-1247.9	43.136	244.13	-1072	87.627	209.69	NaN	NaN	NaN	-994.43	140.05	274.81	-1485.1	1544.3	321.13	-1547.6	1274.3	329.34
